<svg id="レイヤー_1" data-name="レイヤー 1" xmlns="http://www.w3.org/2000/svg" viewBox="0 0 1280 308.64"><defs><style>.cls-1{fill:none;}.cls-2{fill:#ffd300;}</style></defs><rect class="cls-1" width="1280" height="308.64"/><path d="M382.7,520q0,16.44-10.05,26.66t-26.41,10.23q-15.86,0-26.08-10.08t-10.23-25.94q0-16.72,9.8-27.13t26.51-10.41q16.29,0,26.37,10.2T382.7,520Zm-23.63,0a15.55,15.55,0,0,0-3.53-10,11.26,11.26,0,0,0-9.15-4.36,11.6,11.6,0,0,0-9.37,4.47,16.12,16.12,0,0,0,0,20,12,12,0,0,0,18.66,0A15.42,15.42,0,0,0,359.07,520Z" transform="translate(0 -350.98)" fill="#fff"/><path d="M468.71,520.82q0,15.42-9.08,25.57-9.37,10.53-24.57,10.52a30.19,30.19,0,0,1-11.89-2.73q-6.35-2.74-5.76-2.74c-.63,0-.94.72-.94,2.16q0,3.67.36,11.06t.36,11.06a2.07,2.07,0,0,1-2.38,2.31l-14.7.07a34.33,34.33,0,0,1-6.41-.36,2.51,2.51,0,0,1-2.16-2.67l.14-55.48q0-16.79-2.52-28.31a6.9,6.9,0,0,1-.14-1.23,1.41,1.41,0,0,1,.86-1.44,61.68,61.68,0,0,1,10.74-2.31,81.45,81.45,0,0,1,11.17-1.22q2.81,0,3.2,3.71c.27,2.47.59,3.71,1,3.71-.49,0,1.57-1.31,6.16-3.93s8.75-3.92,12.5-3.92q15.63,0,25,10.3Q468.71,504.9,468.71,520.82ZM442,520.67a15.47,15.47,0,0,0-3.53-10.08,11.87,11.87,0,0,0-9.44-4.54,11,11,0,0,0-9.23,4.54,16.56,16.56,0,0,0-3,10.08,15.89,15.89,0,0,0,3.17,10.16,11.17,11.17,0,0,0,9.36,4.4Q442,535.23,442,520.67Z" transform="translate(0 -350.98)" fill="#fff"/><path d="M543.1,516.35q0,7.27-4.69,8.29c-.52.09-5.5.62-14.91,1.58q-8.5.94-25.36,2.23c.67,3.13,2.71,5.5,6.12,7.14a21.7,21.7,0,0,0,9.51,2,27.26,27.26,0,0,0,12.9-3.45l5.48-3.46q1.5.72,5.08,7.35t3.56,8.43c0,.33-.36.89-1.08,1.65q-8.79,9.45-27.31,9.44-17.14,0-27.66-10-10.82-10.17-10.81-27.17,0-16.56,9.65-27.16,9.94-11,26.37-11a31.26,31.26,0,0,1,23.49,10.09A33.49,33.49,0,0,1,543.1,516.35ZM517.88,512a11.17,11.17,0,0,0-3.17-7.85,10,10,0,0,0-7.57-3.39,9.11,9.11,0,0,0-7.49,3.82,13.19,13.19,0,0,0-2.74,8.29c0,1.3.68,1.94,2,1.94a126.92,126.92,0,0,0,16.57-1.65C517.09,512.87,517.88,512.48,517.88,512Z" transform="translate(0 -350.98)" fill="#fff"/><path d="M622.08,553.38a2.06,2.06,0,0,1-2,2.24c-1.34.19-4.85.29-10.51.29a81.3,81.3,0,0,1-11.24-.44c-1.45-.28-2.17-1.27-2.17-3,0-2.26.08-5.67.22-10.23s.22-8,.22-10.31c0-1.77-.05-4.43-.15-8s-.14-6.18-.14-8q0-9.87-8.58-9.87c-1.87,0-4.06.82-6.55,2.45q-4,2.75-4,5.4V553a2.36,2.36,0,0,1-2.23,2.67c-1.68.19-5.12.29-10.3.29a83.2,83.2,0,0,1-11-.44c-1.49-.24-2.23-1-2.23-2.37q0-5.62.07-16.94t.07-17q0-17.94-2.81-28.17a5.59,5.59,0,0,1-.14-1.08,1.59,1.59,0,0,1,1.08-1.59q4.55-.49,12.11-1.58,11.44-2.24,12.89-2.24.8,0,1.23,4.87c.29,3.24.69,4.86,1.22,4.86q-.79,0,7.75-5t15-5q9.15,0,15.27,4.33a16.11,16.11,0,0,1,6.85,13.83v23q0,4.68.07,14T622.08,553.38Z" transform="translate(0 -350.98)" fill="#fff"/><path d="M665.72,539.69a16.78,16.78,0,0,1-4.94,12.18,16.16,16.16,0,0,1-12,5,16,16,0,0,1-12-5.08,17.44,17.44,0,0,1,0-24.24,16.75,16.75,0,0,1,23.95,0A16.69,16.69,0,0,1,665.72,539.69Z" transform="translate(0 -350.98)" fill="#fff"/><path d="M733.83,480.54a12,12,0,0,1-1.15,5.4Q723.23,504.6,707,525.21a9.43,9.43,0,0,0-2.3,5.48q0,3.81.43,11.45c.29,5.1.43,8.89.43,11.39,0,.86-.19,1.39-.57,1.58a17.44,17.44,0,0,1-2,.36,109.84,109.84,0,0,1-13,.44,119.71,119.71,0,0,1-13.33-.44c-1.34-.19-2-.89-2-2.09q0-3.81.65-11.63T676,530a9.29,9.29,0,0,0-1.73-5q-8.72-12.33-24.93-37.76a9.83,9.83,0,0,1-1.66-4.61q0-4.32-.43-13t-.43-13q0-2.37,1.44-2.37,4.39,0,13.33.36t13.4.36c1.11,0,1.66.36,1.66,1.08,0,2.45-.11,6.13-.32,11.06s-.33,8.61-.33,11.06q0,2.16,6.34,10.8,5,6.78,8.29,10.45,3-3.45,7.85-10.37,6.19-8.65,6.2-10.45,0-3.6-.54-10.92t-.54-10.91c0-1,.21-1.59.64-1.73H706q4.32,0,13-.4t13.08-.39q1.44,0,1.44,3.09,0,3.82.14,11.5C733.78,474.09,733.83,478,733.83,480.54Z" transform="translate(0 -350.98)" fill="#fff"/><path d="M801.91,516.35q0,7.27-4.68,8.29-.79.14-14.92,1.58-8.5.94-25.36,2.23c.67,3.13,2.71,5.5,6.12,7.14a21.71,21.71,0,0,0,9.52,2,27.25,27.25,0,0,0,12.89-3.45l5.48-3.46q1.51.72,5.08,7.35t3.57,8.43c0,.33-.37.89-1.09,1.65q-8.79,9.45-27.3,9.44-17.16,0-27.67-10-10.81-10.17-10.81-27.17,0-16.56,9.66-27.16,9.93-11,26.37-11a31.29,31.29,0,0,1,23.49,10.09A33.52,33.52,0,0,1,801.91,516.35ZM776.69,512a11.12,11.12,0,0,0-3.17-7.85,10,10,0,0,0-7.56-3.39,9.12,9.12,0,0,0-7.5,3.82,13.18,13.18,0,0,0-2.73,8.29c0,1.3.67,1.94,2,1.94a126.92,126.92,0,0,0,16.57-1.65C775.9,512.87,776.69,512.48,776.69,512Z" transform="translate(0 -350.98)" fill="#fff"/><path d="M835.34,512.1q0,19.67.14,30.19c0,1.1.07,3,.22,5.69.14,2.45.21,4.35.21,5.69q0,1.51-1.8,1.8a77.25,77.25,0,0,1-11.67.58c-5.76,0-9.44-.19-11-.58a2.13,2.13,0,0,1-1.8-1.94v-3.1q0-6.42.14-19.2t.14-19.13q0-30.27.08-27.6a230.41,230.41,0,0,0-1.8-27.45,7.15,7.15,0,0,1-.15-1.22c0-1.06.63-1.59,1.87-1.59h25.73c1.2,0,1.75.51,1.65,1.51l-.07,1.3Q835.34,488.18,835.34,512.1Z" transform="translate(0 -350.98)" fill="#fff"/><path d="M873.45,512.1q0,19.67.15,30.19c0,1.1.07,3,.21,5.69.15,2.45.22,4.35.22,5.69q0,1.51-1.8,1.8a77.25,77.25,0,0,1-11.67.58c-5.77,0-9.44-.19-11-.58a2.16,2.16,0,0,1-1.8-1.94v-3.1q0-6.42.15-19.2T848,512.1q0-30.27.07-27.6a226.27,226.27,0,0,0-1.8-27.45,6.93,6.93,0,0,1-.14-1.22c0-1.06.62-1.59,1.87-1.59h25.72c1.2,0,1.76.51,1.66,1.51l-.07,1.3Q873.46,488.18,873.45,512.1Z" transform="translate(0 -350.98)" fill="#fff"/><path d="M954.54,520q0,16.44-10.06,26.66t-26.4,10.23q-15.86,0-26.09-10.08t-10.23-25.94q0-16.72,9.8-27.13t26.52-10.41q16.27,0,26.37,10.2T954.54,520Zm-23.64,0a15.49,15.49,0,0,0-3.53-10,11.24,11.24,0,0,0-9.15-4.36,11.61,11.61,0,0,0-9.37,4.47,16.16,16.16,0,0,0,0,20,12,12,0,0,0,18.67,0A15.47,15.47,0,0,0,930.9,520Z" transform="translate(0 -350.98)" fill="#fff"/><path d="M1065.75,505q0,11.23-1.8,15.63-1.87,4.62-9.37,17.15-7.63,12.9-10.52,16-1.95,2.08-9.51,2.09a42.05,42.05,0,0,1-7.93-.44,5.86,5.86,0,0,1-2.52-1.44q-4.11-4-12.68-19.81Q1002.35,550.43,999,554c-1.16,1.25-4.3,1.88-9.44,1.88a34.31,34.31,0,0,1-7.06-.44q-3.6-1-12.18-15.63a173.51,173.51,0,0,1-10-19.17q-1.87-4.6-1.88-15.63,0-13.34.72-16.29a2.35,2.35,0,0,1,2.52-1.87q3.31,0,9.95.22t9.94.21c1.11,0,1.66.8,1.66,2.38q0,2.08-.15,6.38t-.14,6.37c0,5.82.14,10.11.43,12.9.1,1.06,1.38,3.76,3.86,8.11s4,6.52,4.57,6.52c.87,0,2.45-2.14,4.76-6.42a60.7,60.7,0,0,0,3.67-8q.87-2.62.87-13c0-1.45-.14-3.59-.4-6.45s-.4-5-.4-6.38.56-2.23,1.66-2.23c1.35,0,4,0,8-.08l2.95-.07-.25,0c-.12,0-.16,0-.11,0H1015c1.83-.05,4.49,0,8,.15,1.06.14,1.58.89,1.58,2.23q0,2.74-.36,8.32t-.36,8.32c0,4.9.2,8,.58,9.3a67.45,67.45,0,0,0,3.46,7.85q3.24,6.49,4.54,6.49t4.82-6.56q3.39-6.27,3.61-8.21.29-2.75.29-25.51,0-2.52,1.44-2.52c2.21,0,5.53-.07,10-.22s7.77-.21,10-.21a2.34,2.34,0,0,1,2.45,2Q1065.74,491.78,1065.75,505Z" transform="translate(0 -350.98)" fill="#fff"/><path d="M1101.34,539.69a16.77,16.77,0,0,1-4.93,12.18,16.16,16.16,0,0,1-12,5,16,16,0,0,1-12-5.08,17.44,17.44,0,0,1,0-24.24,16.76,16.76,0,0,1,24,0A16.68,16.68,0,0,1,1101.34,539.69Z" transform="translate(0 -350.98)" fill="#fff"/><path d="M1179.38,520q0,16.44-10.06,26.66t-26.4,10.23q-15.86,0-26.08-10.08t-10.24-25.94q0-16.72,9.8-27.13t26.52-10.41q16.27,0,26.37,10.2T1179.38,520Zm-23.64,0a15.49,15.49,0,0,0-3.53-10,11.24,11.24,0,0,0-9.15-4.36,11.59,11.59,0,0,0-9.36,4.47,16.12,16.12,0,0,0,0,20,12,12,0,0,0,18.66,0A15.47,15.47,0,0,0,1155.74,520Z" transform="translate(0 -350.98)" fill="#fff"/><path d="M1227.79,497.18a3.49,3.49,0,0,1-1.08,1.95,16.37,16.37,0,0,0-4-.51,12.79,12.79,0,0,0-7.13,1.88,6.82,6.82,0,0,0-3.46,6.12q0,2.52,3.67,6.42a72.59,72.59,0,0,1,6.85,7.85,20.67,20.67,0,0,1,3.67,11.74,23.49,23.49,0,0,1-1.44,7.78,15.1,15.1,0,0,1-4.18,6.63,49.56,49.56,0,0,1-12.46,7.78,36.24,36.24,0,0,1-14.2,3.32q-1.44,0-6.45-7.82t-5-9.55c0-.43.26-.69.79-.79l10.16-1.87q6.35-2,6.34-6.63,0-3.16-3.68-7.35-6.56-7.27-6.84-7.71a18.65,18.65,0,0,1-3.68-10.95q0-10.82,11-18.37a36.43,36.43,0,0,1,21-6.7q1.15,0,5.7,7.74T1227.79,497.18Z" transform="translate(0 -350.98)" fill="#fff"/><polygon class="cls-2" points="155.61 51.06 52.35 75.39 155.61 99.72 258.87 75.39 155.61 51.06"/><path class="cls-2" d="M52.35,584.23l92.7,24.33v-137l-92.7-24.33ZM98.7,491.65c13.62,0,24.66,16.24,24.66,36.26s-11,36.26-24.66,36.26S74,547.94,74,527.91,85.07,491.65,98.7,491.65Z" transform="translate(0 -350.98)"/><path class="cls-2" d="M166.17,471.6v137l92.7-24.33v-137Zm46.35,92.57c-13.62,0-24.66-16.23-24.66-36.26s11-36.26,24.66-36.26,24.67,16.24,24.67,36.26S226.15,564.17,212.52,564.17Z" transform="translate(0 -350.98)"/></svg>