<?xml version="1.0" encoding="UTF-8" standalone="no"?>
<!-- Generator: Adobe Illustrator 26.0.3, SVG Export Plug-In . SVG Version: 6.00 Build 0)  -->

<svg
   version="1.1"
   id="レイヤー_1"
   x="0px"
   y="0px"
   viewBox="0 0 128 128"
   xml:space="preserve"
   sodipodi:docname="emblem-debian.svg"
   width="128"
   height="128"
   inkscape:version="1.1.2 (0a00cf5339, 2022-02-04)"
   xmlns:inkscape="http://www.inkscape.org/namespaces/inkscape"
   xmlns:sodipodi="http://sodipodi.sourceforge.net/DTD/sodipodi-0.dtd"
   xmlns="http://www.w3.org/2000/svg"
   xmlns:svg="http://www.w3.org/2000/svg"><defs
   id="defs125" /><sodipodi:namedview
   id="namedview123"
   pagecolor="#505050"
   bordercolor="#ffffff"
   borderopacity="1"
   inkscape:pageshadow="0"
   inkscape:pageopacity="0"
   inkscape:pagecheckerboard="1"
   showgrid="false"
   width="256px"
   inkscape:zoom="0.97035431"
   inkscape:cx="101.50931"
   inkscape:cy="57.710879"
   inkscape:window-width="1366"
   inkscape:window-height="699"
   inkscape:window-x="0"
   inkscape:window-y="0"
   inkscape:window-maximized="1"
   inkscape:current-layer="レイヤー_1" />
<style
   type="text/css"
   id="style84">
	.st0{fill:none;}
	.st1{fill:#FFD300;}
</style>
<rect
   class="st0"
   width="1115.6"
   height="1024"
   id="rect86"
   x="0"
   y="0" />
















<g
   id="g224"
   transform="matrix(0.14998281,0,0,0.15429324,-0.36264665,4.7434263)"><path
     d="m 72.179751,714.7211 c 0,10.1 -3.1,18.3 -9.300003,24.6 -6.2,6.3 -14.3,9.4 -24.299998,9.4 -9.7,0 -17.7,-3.1 -24,-9.3 -6.2999996,-6.2 -9.3999994,-14.2 -9.3999994,-23.9 0,-10.3 2.9999998,-18.6 9.0000004,-25 5.999999,-6.4 14.099999,-9.6 24.399999,-9.6 9.999998,0 18.099998,3.1 24.299998,9.4 6.200003,6.3 9.300003,14.4 9.300003,24.4 z m -21.800003,0 c 0,-3.4 -1.1,-6.7 -3.299998,-9.3 -2,-2.6 -5.1,-4.1 -8.4,-4 -3.4,-0.1 -6.6,1.5 -8.6,4.1 -4.3,5.4 -4.3,13 0,18.4 3.8,4.7 10.8,5.5 15.5,1.7 0.6,-0.5 1.2,-1.1 1.7,-1.7 2.099998,-2.6 3.199998,-5.8 3.099998,-9.2 z"
     id="path88" /><path
     d="m 151.47975,715.4211 c 0,9.5 -2.8,17.3 -8.4,23.6 -5.8,6.5 -13.3,9.7 -22.6,9.7 -3.8,-0.1 -7.5,-0.9 -11,-2.5 -3.9,-1.7 -5.7,-2.5 -5.3,-2.5 -0.6,0 -0.9,0.7 -0.9,2 0,2.3 0.1,5.7 0.3,10.2 0.2,4.5 0.3,7.9 0.3,10.2 0.1,1 -0.6,2 -1.7,2.1 -0.2,0 -0.4,0 -0.5,0 l -13.499999,0.1 c -2,0.1 -4,0 -5.9,-0.3 -1.2,-0.2 -2.1,-1.2 -2,-2.5 l 0.1,-51.1 c 0.2,-8.8 -0.6,-17.5 -2.3,-26.1 -0.1,-0.4 -0.1,-0.7 -0.1,-1.1 -0.1,-0.6 0.3,-1.1 0.8,-1.3 3.2,-1 6.5,-1.7 9.9,-2.1 3.4,-0.6 6.8,-1 10.300001,-1.1 1.699998,0 2.699998,1.1 2.999998,3.4 0.3,2.3 0.5,3.4 0.9,3.4 -0.4,0 1.5,-1.2 5.7,-3.6 4.2,-2.4 8.1,-3.6 11.5,-3.6 9.6,0 17.3,3.2 23,9.5 5.7,5.9 8.4,13.8 8.4,23.6 z m -24.6,-0.1 c 0.1,-3.4 -1.1,-6.7 -3.3,-9.3 -2.1,-2.7 -5.3,-4.2 -8.7,-4.2 -3.4,-0.1 -6.5,1.5 -8.5,4.2 -1.9,2.7 -2.9,6 -2.8,9.3 -0.1,3.4 0.9,6.7 2.9,9.4 2,2.7 5.3,4.2 8.6,4 7.9,0 11.8,-4.5 11.8,-13.4 z"
     id="path90" /><path
     d="m 220.07975,711.3211 c 0,4.5 -1.4,7 -4.3,7.6 -0.5,0.1 -5.1,0.6 -13.8,1.5 -5.2,0.6 -13,1.3 -23.4,2.1 0.6,2.9 2.5,5.1 5.6,6.6 2.7,1.3 5.7,1.9 8.8,1.9 4.2,-0.1 8.3,-1.2 11.9,-3.2 l 5,-3.2 c 0.9,0.5 2.5,2.7 4.7,6.8 2.2,4.1 3.3,6.7 3.3,7.8 0,0.3 -0.3,0.8 -1,1.5 -5.4,5.8 -13.8,8.7 -25.2,8.7 -10.5,0 -19,-3.1 -25.5,-9.2 -6.7,-6.2 -10,-14.6 -10,-25 0,-10.2 3,-18.5 8.9,-25 6.1,-6.7 14.2,-10.1 24.3,-10.1 8.2,-0.2 16.2,3.2 21.8,9.2 5.8,5.8 9,13.7 8.9,22 z m -23.2,-4 c 0,-2.7 -1,-5.3 -2.9,-7.2 -1.8,-2 -4.3,-3.1 -7,-3.1 -2.7,0 -5.3,1.3 -6.9,3.5 -1.7,2.2 -2.6,4.9 -2.5,7.6 -0.1,0.9 0.5,1.7 1.4,1.8 0.2,0 0.3,0 0.5,0 5.1,-0.2 10.2,-0.7 15.3,-1.5 1.3,-0.3 2.1,-0.7 2.1,-1.1 z"
     id="path92" /><path
     d="m 292.87975,745.4211 c 0.1,1 -0.7,2 -1.7,2.1 0,0 -0.1,0 -0.1,0 -1.2,0.2 -4.5,0.3 -9.7,0.3 -3.5,0.1 -6.9,0 -10.4,-0.4 -1.3,-0.2 -2.2,-1.4 -2,-2.7 0,-2.1 0.1,-5.2 0.2,-9.4 0.1,-4.2 0.2,-7.4 0.2,-9.5 0,-1.6 0,-4.1 -0.1,-7.3 -0.1,-3.2 -0.1,-5.7 -0.1,-7.3 0,-6.1 -2.6,-9.1 -7.9,-9.1 -2.2,0.2 -4.3,1 -6,2.3 -2.5,1.7 -3.7,3.3 -3.7,5 v 35.6 c 0.2,1.2 -0.7,2.3 -1.9,2.4 -0.1,0 -0.1,0 -0.2,0 -1.5,0.2 -4.7,0.3 -9.5,0.3 -3.4,0.1 -6.7,0 -10.1,-0.4 -1.2,0 -2.1,-1 -2.1,-2.1 0,0 0,0 0,-0.1 0,-3.5 0,-8.7 0.1,-15.6 0,-6.9 0.1,-12.2 0.1,-15.7 0,-11 -0.9,-19.7 -2.6,-26 -0.1,-0.3 -0.1,-0.7 -0.1,-1 0,-0.7 0.4,-1.3 1,-1.5 2.8,-0.3 6.5,-0.8 11.2,-1.5 7,-1.3 11,-1.9 11.9,-1.9 0.5,0 0.9,1.5 1.1,4.5 0.2,3 0.6,4.5 1.1,4.5 -0.5,0 1.9,-1.5 7.1,-4.6 5.2,-3.1 9.8,-4.6 13.8,-4.6 5.6,0 10.3,1.3 14.1,4 4.1,2.9 6.5,7.7 6.3,12.8 v 21.2 c 0,2.9 0,7.2 0.1,12.9 -0.1,5.7 -0.1,10 -0.1,12.8 z"
     id="path94" /><path
     d="m 333.07975,732.8211 c 0.1,4.2 -1.6,8.3 -4.5,11.2 -5.9,6.1 -15.7,6.2 -21.8,0.3 -0.1,-0.1 -0.2,-0.2 -0.3,-0.3 -6,-6.2 -6,-16.1 0,-22.3 6,-6.1 15.7,-6.2 21.8,-0.3 0.1,0.1 0.2,0.2 0.3,0.3 2.9,2.9 4.6,7 4.5,11.1 z"
     id="path96" /><path
     d="m 395.87975,678.3211 c 0,1.7 -0.3,3.4 -1.1,5 -6.7,12.8 -14.6,24.9 -23.7,36.2 -1.2,1.4 -2,3.1 -2.1,5 0,2.3 0.1,5.9 0.4,10.6 0.3,4.7 0.4,8.2 0.4,10.5 0,0.8 -0.2,1.3 -0.5,1.5 -0.1,0 -0.7,0.2 -1.8,0.3 -4,0.4 -8,0.5 -12,0.4 -4.1,0.1 -8.2,0 -12.3,-0.4 -1.2,-0.2 -1.9,-0.8 -1.9,-1.9 0,-2.3 0.2,-5.9 0.6,-10.7 0.4,-4.8 0.6,-8.4 0.6,-10.8 -0.1,-1.7 -0.6,-3.2 -1.6,-4.6 -5.3,-7.6 -13,-19.2 -23,-34.8 -0.9,-1.3 -1.4,-2.7 -1.5,-4.2 0,-2.7 -0.1,-6.6 -0.4,-12 -0.3,-5.4 -0.4,-9.3 -0.4,-12 0,-1.5 0.4,-2.2 1.3,-2.2 2.7,0 6.8,0.1 12.3,0.3 5.5,0.2 9.6,0.3 12.3,0.3 1,0 1.5,0.3 1.5,1 0,2.3 -0.1,5.7 -0.3,10.2 -0.2,4.5 -0.3,7.9 -0.3,10.2 0,1.3 2,4.7 5.8,10 3.1,4.2 5.6,7.4 7.6,9.6 1.8,-2.1 4.2,-5.3 7.2,-9.6 3.8,-5.3 5.7,-8.5 5.7,-9.6 0,-2.2 -0.2,-5.6 -0.5,-10.1 -0.3,-4.5 -0.5,-7.8 -0.5,-10.1 0,-0.9 0.2,-1.5 0.6,-1.6 h 1.7 c 2.7,0 6.7,-0.1 12,-0.4 5.3,-0.2 9.4,-0.4 12.1,-0.4 0.9,0 1.3,1 1.3,2.8 0,2.4 0,5.9 0.1,10.6 0.1,4.7 0.4,8.5 0.4,10.9 z"
     id="path98" /><path
     d="m 458.57975,711.3211 c 0,4.5 -1.4,7 -4.3,7.6 -0.5,0.1 -5.1,0.6 -13.8,1.5 -5.2,0.6 -13,1.3 -23.4,2.1 0.6,2.9 2.5,5.1 5.7,6.6 2.7,1.3 5.7,1.9 8.8,1.9 4.2,-0.1 8.3,-1.2 11.9,-3.2 l 5,-3.2 c 0.9,0.5 2.5,2.7 4.7,6.8 2.2,4.1 3.3,6.7 3.3,7.8 0,0.3 -0.3,0.8 -1,1.5 -5.4,5.8 -13.8,8.7 -25.2,8.7 -10.5,0 -19,-3.1 -25.5,-9.2 -6.7,-6.2 -10,-14.6 -10,-25 0,-10.2 3,-18.5 8.9,-25 6.1,-6.7 14.2,-10.1 24.3,-10.1 8.2,-0.1 16.1,3.3 21.7,9.3 5.8,5.7 9,13.7 8.9,21.9 z m -23.2,-4 c 0,-2.7 -1,-5.3 -2.9,-7.2 -1.8,-2 -4.3,-3.1 -7,-3.1 -2.7,0 -5.3,1.3 -6.9,3.5 -1.7,2.2 -2.6,4.9 -2.5,7.6 -0.1,0.9 0.5,1.7 1.4,1.8 0.2,0 0.3,0 0.5,0 5.1,-0.2 10.2,-0.7 15.3,-1.6 1.4,-0.2 2.1,-0.6 2.1,-1 z"
     id="path100" /><path
     d="m 489.37975,707.4211 c 0,12.1 0,21.4 0.1,27.8 0,1 0.1,2.8 0.2,5.2 0.1,2.3 0.2,4 0.2,5.2 0,0.9 -0.5,1.5 -1.7,1.7 -3.6,0.4 -7.2,0.6 -10.8,0.5 -5.3,0 -8.7,-0.2 -10.2,-0.5 -0.9,-0.2 -1.6,-0.9 -1.7,-1.8 v -2.9 c 0,-3.9 0,-9.8 0.1,-17.7 0.1,-7.9 0.1,-13.7 0.1,-17.6 0,-18.6 0,-27.1 0.1,-25.4 0,-8.5 -0.6,-16.9 -1.7,-25.3 -0.1,-0.4 -0.1,-0.8 -0.1,-1.1 0,-1 0.6,-1.5 1.7,-1.5 h 23.7 c 1.1,0 1.6,0.5 1.5,1.4 l -0.1,1.2 c -0.8,19.2 -1.4,36.1 -1.4,50.8 z"
     id="path102" /><path
     d="m 524.57975,707.4211 c 0,12.1 0,21.4 0.1,27.8 0,1 0.1,2.8 0.2,5.2 0.1,2.3 0.2,4 0.2,5.2 0,0.9 -0.6,1.5 -1.7,1.7 -3.6,0.4 -7.2,0.6 -10.8,0.5 -5.3,0 -8.7,-0.2 -10.2,-0.5 -0.9,-0.2 -1.6,-0.9 -1.7,-1.8 v -2.9 c 0,-3.9 0,-9.8 0.1,-17.7 0.1,-7.9 0.1,-13.7 0.1,-17.6 0,-18.6 0,-27.1 0.1,-25.4 0,-8.5 -0.6,-16.9 -1.7,-25.3 -0.1,-0.4 -0.1,-0.8 -0.1,-1.1 0,-1 0.6,-1.5 1.7,-1.5 h 23.7 c 1.1,0 1.6,0.5 1.5,1.4 l -0.1,1.2 c -0.8,19.2 -1.4,36.1 -1.4,50.8 z"
     id="path104" /><path
     d="m 599.27975,714.7211 c 0,10.1 -3.1,18.3 -9.3,24.6 -6.2,6.3 -14.3,9.4 -24.3,9.4 -9.7,0 -17.7,-3.1 -24,-9.3 -6.3,-6.2 -9.4,-14.2 -9.5,-23.9 0,-10.3 3,-18.6 9,-25 6,-6.4 14.1,-9.6 24.4,-9.6 10,0 18.1,3.1 24.3,9.4 6.2,6.3 9.4,14.4 9.4,24.4 z m -21.8,0 c 0,-3.4 -1.1,-6.7 -3.3,-9.3 -2,-2.6 -5.1,-4.1 -8.4,-4 -3.4,-0.1 -6.6,1.5 -8.6,4.1 -4.2,5.4 -4.2,13 0,18.4 3.8,4.7 10.8,5.5 15.5,1.7 0.6,-0.5 1.2,-1.1 1.7,-1.7 2.1,-2.6 3.2,-5.8 3.1,-9.2 z"
     id="path106" /><path
     d="m 701.77975,700.9211 c 0,6.9 -0.6,11.7 -1.7,14.4 -1.2,2.8 -4,8.1 -8.6,15.8 -4.7,7.9 -7.9,12.8 -9.7,14.7 -1.2,1.3 -4.1,1.9 -8.8,1.9 -2.4,0.1 -4.9,0 -7.3,-0.4 -0.9,-0.2 -1.7,-0.7 -2.3,-1.3 -2.5,-2.5 -6.4,-8.6 -11.7,-18.3 -5.6,10 -9.4,16 -11.4,18.3 -1.1,1.2 -4,1.7 -8.7,1.7 -2.2,0.1 -4.4,0 -6.5,-0.4 -2.2,-0.6 -5.9,-5.4 -11.2,-14.4 -3.4,-5.7 -6.5,-11.6 -9.2,-17.7 -1.2,-2.8 -1.7,-7.6 -1.7,-14.4 0,-8.2 0.2,-13.2 0.7,-15 0.2,-1.1 1.2,-1.8 2.3,-1.7 2,0 5.1,0.1 9.2,0.2 4.1,0.1 7.1,0.2 9.2,0.2 1,0 1.5,0.7 1.5,2.2 0,1.3 0,3.2 -0.1,5.9 -0.1,2.7 -0.1,4.6 -0.1,5.9 0,5.3 0.1,9.3 0.4,11.9 0.1,1 1.3,3.5 3.5,7.5 2.2,4 3.7,6 4.2,6 0.8,0 2.2,-2 4.4,-5.9 1.3,-2.4 2.4,-4.9 3.4,-7.4 0.5,-1.6 0.8,-5.6 0.8,-12 0,-1.3 -0.1,-3.3 -0.4,-6 -0.2,-2.6 -0.4,-4.6 -0.4,-5.9 0,-1.4 0.5,-2.1 1.5,-2.1 1.2,0 3.7,0 7.4,-0.1 l 2.7,-0.1 h -0.2 c -0.1,0 -0.1,0 -0.1,0 h 2.2 c 1.7,0 4.1,0 7.4,0.1 1,0.1 1.5,0.8 1.5,2.1 0,1.7 -0.1,4.2 -0.3,7.7 -0.2,3.4 -0.3,6 -0.3,7.7 0,4.5 0.2,7.4 0.5,8.6 0.9,2.5 2,4.9 3.2,7.2 2,4 3.4,6 4.2,6 0.8,0 2.3,-2 4.5,-6 2.1,-3.9 3.2,-6.4 3.3,-7.6 0.2,-1.7 0.3,-9.5 0.3,-23.5 0,-1.5 0.4,-2.3 1.3,-2.3 2,0 5.1,-0.1 9.2,-0.2 4.1,-0.1 7.2,-0.2 9.2,-0.2 1.1,-0.1 2.1,0.7 2.3,1.9 0.2,1.8 0.4,6.8 0.4,15 z"
     id="path108" /><path
     d="m 734.57975,732.8211 c 0.1,4.2 -1.6,8.3 -4.5,11.2 -5.9,6.1 -15.7,6.2 -21.8,0.3 -0.1,-0.1 -0.2,-0.2 -0.3,-0.3 -6,-6.2 -6,-16.1 0,-22.3 6,-6.1 15.7,-6.2 21.8,-0.3 0.1,0.1 0.2,0.2 0.3,0.3 2.9,2.9 4.6,7 4.5,11.1 z"
     id="path110" /><path
     d="m 806.57975,714.7211 c 0,10.1 -3.1,18.3 -9.3,24.6 -6.2,6.3 -14.3,9.4 -24.3,9.4 -9.7,0 -17.7,-3.1 -24,-9.3 -6.3,-6.2 -9.4,-14.2 -9.4,-23.9 0,-10.3 3,-18.6 9,-25 6,-6.4 14.1,-9.6 24.4,-9.6 10,0 18.1,3.1 24.3,9.4 6.2,6.3 9.3,14.4 9.3,24.4 z m -21.8,0 c 0,-3.4 -1.1,-6.7 -3.2,-9.3 -2,-2.6 -5.1,-4.1 -8.4,-4 -3.4,-0.1 -6.6,1.5 -8.6,4.1 -4.3,5.4 -4.3,13 0,18.4 3.8,4.7 10.8,5.5 15.5,1.7 0.6,-0.5 1.2,-1.1 1.7,-1.7 1.9,-2.6 3.1,-5.8 3,-9.2 z"
     id="path112" /><path
     d="m 851.17975,693.6211 c -0.1,0.7 -0.5,1.3 -1,1.8 -1.2,-0.3 -2.5,-0.5 -3.7,-0.5 -2.3,-0.1 -4.6,0.5 -6.6,1.7 -2,1.1 -3.2,3.3 -3.2,5.6 0,1.5 1.1,3.5 3.4,5.9 2.3,2.3 4.4,4.7 6.3,7.2 2.2,3.2 3.4,7 3.4,10.8 0,2.4 -0.5,4.9 -1.3,7.2 -0.7,2.3 -2.1,4.4 -3.8,6.1 -3.5,2.9 -7.3,5.4 -11.5,7.2 -4.1,1.9 -8.6,2.9 -13.1,3.1 -0.9,0 -2.9,-2.4 -6,-7.2 -3.1,-4.8 -4.7,-7.7 -4.6,-8.8 0,-0.4 0.2,-0.6 0.7,-0.7 l 9.4,-1.7 c 3.9,-1.2 5.8,-3.3 5.8,-6.1 0,-1.9 -1.1,-4.2 -3.4,-6.8 -4,-4.5 -6.1,-6.8 -6.3,-7.1 -2.2,-2.9 -3.4,-6.5 -3.4,-10.1 0,-6.7 3.4,-12.3 10.1,-16.9 5.6,-4 12.4,-6.2 19.3,-6.2 0.7,0 2.5,2.4 5.2,7.1 2.7,4.7 4.3,7.6 4.3,8.4 z"
     id="path114" /><polygon
     class="st1"
     points="273.3,197.9 558.8,265.2 844.3,197.9 558.8,130.7 "
     id="polygon116"
     transform="translate(-129.62025,-120.9789)" /><path
     class="st1"
     d="m 143.67975,513.4211 256.3,67.3 v -378.7 l -256.3,-67.3 z m 128.2,-256 c 37.7,0 68.2,44.9 68.2,100.2 0,55.3 -30.5,100.2 -68.2,100.2 -37.7,0 -68.2,-44.9 -68.2,-100.2 0,-55.3 30.5,-100.2 68.2,-100.2 z"
     id="path118" /><path
     class="st1"
     d="m 458.37975,202.0211 v 378.7 l 256.3,-67.3 v -378.7 z m 128.2,256 c -37.7,0 -68.2,-44.9 -68.2,-100.2 0,-55.3 30.5,-100.2 68.2,-100.2 37.7,0 68.2,44.9 68.2,100.2 0,55.3 -30.6,100.1 -68.2,100.2 z"
     id="path120" /></g>
</svg>
