<?xml version="1.0" encoding="utf-8"?>
<!-- Generator: Adobe Illustrator 26.0.3, SVG Export Plug-In . SVG Version: 6.00 Build 0)  -->
<svg version="1.1" id="レイヤー_1" xmlns="http://www.w3.org/2000/svg" xmlns:xlink="http://www.w3.org/1999/xlink" x="0px"
	 y="0px" viewBox="0 0 1115.6 1024" style="enable-background:new 0 0 1115.6 1024;" xml:space="preserve">
<style type="text/css">
	.st0{fill:none;}
	.st1{fill:#FFD300;}
</style>
<rect class="st0" width="1115.6" height="1024"/>
<path d="M201.8,835.7c0,10.1-3.1,18.3-9.3,24.6s-14.3,9.4-24.3,9.4c-9.7,0-17.7-3.1-24-9.3c-6.3-6.2-9.4-14.2-9.4-23.9
	c0-10.3,3-18.6,9-25s14.1-9.6,24.4-9.6c10,0,18.1,3.1,24.3,9.4S201.8,825.7,201.8,835.7z M180,835.7c0-3.4-1.1-6.7-3.3-9.3
	c-2-2.6-5.1-4.1-8.4-4c-3.4-0.1-6.6,1.5-8.6,4.1c-4.3,5.4-4.3,13,0,18.4c3.8,4.7,10.8,5.5,15.5,1.7c0.6-0.5,1.2-1.1,1.7-1.7
	C179,842.3,180.1,839.1,180,835.7L180,835.7z"/>
<path d="M281.1,836.4c0,9.5-2.8,17.3-8.4,23.6c-5.8,6.5-13.3,9.7-22.6,9.7c-3.8-0.1-7.5-0.9-11-2.5c-3.9-1.7-5.7-2.5-5.3-2.5
	c-0.6,0-0.9,0.7-0.9,2c0,2.3,0.1,5.7,0.3,10.2s0.3,7.9,0.3,10.2c0.1,1-0.6,2-1.7,2.1c-0.2,0-0.4,0-0.5,0l-13.5,0.1
	c-2,0.1-4,0-5.9-0.3c-1.2-0.2-2.1-1.2-2-2.5l0.1-51.1c0.2-8.8-0.6-17.5-2.3-26.1c-0.1-0.4-0.1-0.7-0.1-1.1c-0.1-0.6,0.3-1.1,0.8-1.3
	c3.2-1,6.5-1.7,9.9-2.1c3.4-0.6,6.8-1,10.3-1.1c1.7,0,2.7,1.1,3,3.4s0.5,3.4,0.9,3.4c-0.4,0,1.5-1.2,5.7-3.6s8.1-3.6,11.5-3.6
	c9.6,0,17.3,3.2,23,9.5C278.4,818.7,281.1,826.6,281.1,836.4z M256.5,836.3c0.1-3.4-1.1-6.7-3.3-9.3c-2.1-2.7-5.3-4.2-8.7-4.2
	c-3.4-0.1-6.5,1.5-8.5,4.2c-1.9,2.7-2.9,6-2.8,9.3c-0.1,3.4,0.9,6.7,2.9,9.4c2,2.7,5.3,4.2,8.6,4
	C252.6,849.7,256.5,845.2,256.5,836.3L256.5,836.3z"/>
<path d="M349.7,832.3c0,4.5-1.4,7-4.3,7.6c-0.5,0.1-5.1,0.6-13.8,1.5c-5.2,0.6-13,1.3-23.4,2.1c0.6,2.9,2.5,5.1,5.6,6.6
	c2.7,1.3,5.7,1.9,8.8,1.9c4.2-0.1,8.3-1.2,11.9-3.2l5-3.2c0.9,0.5,2.5,2.7,4.7,6.8s3.3,6.7,3.3,7.8c0,0.3-0.3,0.8-1,1.5
	c-5.4,5.8-13.8,8.7-25.2,8.7c-10.5,0-19-3.1-25.5-9.2c-6.7-6.2-10-14.6-10-25c0-10.2,3-18.5,8.9-25c6.1-6.7,14.2-10.1,24.3-10.1
	c8.2-0.2,16.2,3.2,21.8,9.2C346.6,816.1,349.8,824,349.7,832.3z M326.5,828.3c0-2.7-1-5.3-2.9-7.2c-1.8-2-4.3-3.1-7-3.1
	c-2.7,0-5.3,1.3-6.9,3.5c-1.7,2.2-2.6,4.9-2.5,7.6c-0.1,0.9,0.5,1.7,1.4,1.8c0.2,0,0.3,0,0.5,0c5.1-0.2,10.2-0.7,15.3-1.5
	C325.7,829.1,326.5,828.7,326.5,828.3L326.5,828.3z"/>
<path d="M422.5,866.4c0.1,1-0.7,2-1.7,2.1c0,0-0.1,0-0.1,0c-1.2,0.2-4.5,0.3-9.7,0.3c-3.5,0.1-6.9,0-10.4-0.4
	c-1.3-0.2-2.2-1.4-2-2.7c0-2.1,0.1-5.2,0.2-9.4s0.2-7.4,0.2-9.5c0-1.6,0-4.1-0.1-7.3s-0.1-5.7-0.1-7.3c0-6.1-2.6-9.1-7.9-9.1
	c-2.2,0.2-4.3,1-6,2.3c-2.5,1.7-3.7,3.3-3.7,5V866c0.2,1.2-0.7,2.3-1.9,2.4c-0.1,0-0.1,0-0.2,0c-1.5,0.2-4.7,0.3-9.5,0.3
	c-3.4,0.1-6.7,0-10.1-0.4c-1.2,0-2.1-1-2.1-2.1c0,0,0,0,0-0.1c0-3.5,0-8.7,0.1-15.6c0-6.9,0.1-12.2,0.1-15.7c0-11-0.9-19.7-2.6-26
	c-0.1-0.3-0.1-0.7-0.1-1c0-0.7,0.4-1.3,1-1.5c2.8-0.3,6.5-0.8,11.2-1.5c7-1.3,11-1.9,11.9-1.9c0.5,0,0.9,1.5,1.1,4.5
	s0.6,4.5,1.1,4.5c-0.5,0,1.9-1.5,7.1-4.6c5.2-3.1,9.8-4.6,13.8-4.6c5.6,0,10.3,1.3,14.1,4c4.1,2.9,6.5,7.7,6.3,12.8v21.2
	c0,2.9,0,7.2,0.1,12.9C422.5,859.3,422.5,863.6,422.5,866.4z"/>
<path d="M462.7,853.8c0.1,4.2-1.6,8.3-4.5,11.2c-5.9,6.1-15.7,6.2-21.8,0.3c-0.1-0.1-0.2-0.2-0.3-0.3c-6-6.2-6-16.1,0-22.3
	c6-6.1,15.7-6.2,21.8-0.3c0.1,0.1,0.2,0.2,0.3,0.3C461.1,845.6,462.8,849.7,462.7,853.8z"/>
<path d="M525.5,799.3c0,1.7-0.3,3.4-1.1,5c-6.7,12.8-14.6,24.9-23.7,36.2c-1.2,1.4-2,3.1-2.1,5c0,2.3,0.1,5.9,0.4,10.6
	s0.4,8.2,0.4,10.5c0,0.8-0.2,1.3-0.5,1.5c-0.1,0-0.7,0.2-1.8,0.3c-4,0.4-8,0.5-12,0.4c-4.1,0.1-8.2,0-12.3-0.4
	c-1.2-0.2-1.9-0.8-1.9-1.9c0-2.3,0.2-5.9,0.6-10.7s0.6-8.4,0.6-10.8c-0.1-1.7-0.6-3.2-1.6-4.6c-5.3-7.6-13-19.2-23-34.8
	c-0.9-1.3-1.4-2.7-1.5-4.2c0-2.7-0.1-6.6-0.4-12s-0.4-9.3-0.4-12c0-1.5,0.4-2.2,1.3-2.2c2.7,0,6.8,0.1,12.3,0.3s9.6,0.3,12.3,0.3
	c1,0,1.5,0.3,1.5,1c0,2.3-0.1,5.7-0.3,10.2c-0.2,4.5-0.3,7.9-0.3,10.2c0,1.3,2,4.7,5.8,10c3.1,4.2,5.6,7.4,7.6,9.6
	c1.8-2.1,4.2-5.3,7.2-9.6c3.8-5.3,5.7-8.5,5.7-9.6c0-2.2-0.2-5.6-0.5-10.1s-0.5-7.8-0.5-10.1c0-0.9,0.2-1.5,0.6-1.6h1.7
	c2.7,0,6.7-0.1,12-0.4c5.3-0.2,9.4-0.4,12.1-0.4c0.9,0,1.3,1,1.3,2.8c0,2.4,0,5.9,0.1,10.6S525.5,796.9,525.5,799.3z"/>
<path d="M588.2,832.3c0,4.5-1.4,7-4.3,7.6c-0.5,0.1-5.1,0.6-13.8,1.5c-5.2,0.6-13,1.3-23.4,2.1c0.6,2.9,2.5,5.1,5.7,6.6
	c2.7,1.3,5.7,1.9,8.8,1.9c4.2-0.1,8.3-1.2,11.9-3.2l5-3.2c0.9,0.5,2.5,2.7,4.7,6.8s3.3,6.7,3.3,7.8c0,0.3-0.3,0.8-1,1.5
	c-5.4,5.8-13.8,8.7-25.2,8.7c-10.5,0-19-3.1-25.5-9.2c-6.7-6.2-10-14.6-10-25c0-10.2,3-18.5,8.9-25c6.1-6.7,14.2-10.1,24.3-10.1
	c8.2-0.1,16.1,3.3,21.7,9.3C585.1,816.1,588.3,824.1,588.2,832.3z M565,828.3c0-2.7-1-5.3-2.9-7.2c-1.8-2-4.3-3.1-7-3.1
	c-2.7,0-5.3,1.3-6.9,3.5c-1.7,2.2-2.6,4.9-2.5,7.6c-0.1,0.9,0.5,1.7,1.4,1.8c0.2,0,0.3,0,0.5,0c5.1-0.2,10.2-0.7,15.3-1.6
	C564.3,829.1,565,828.7,565,828.3L565,828.3z"/>
<path d="M619,828.4c0,12.1,0,21.4,0.1,27.8c0,1,0.1,2.8,0.2,5.2c0.1,2.3,0.2,4,0.2,5.2c0,0.9-0.5,1.5-1.7,1.7
	c-3.6,0.4-7.2,0.6-10.8,0.5c-5.3,0-8.7-0.2-10.2-0.5c-0.9-0.2-1.6-0.9-1.7-1.8v-2.9c0-3.9,0-9.8,0.1-17.7c0.1-7.9,0.1-13.7,0.1-17.6
	c0-18.6,0-27.1,0.1-25.4c0-8.5-0.6-16.9-1.7-25.3c-0.1-0.4-0.1-0.8-0.1-1.1c0-1,0.6-1.5,1.7-1.5h23.7c1.1,0,1.6,0.5,1.5,1.4
	l-0.1,1.2C619.6,796.8,619,813.7,619,828.4z"/>
<path d="M654.2,828.4c0,12.1,0,21.4,0.1,27.8c0,1,0.1,2.8,0.2,5.2c0.1,2.3,0.2,4,0.2,5.2c0,0.9-0.6,1.5-1.7,1.7
	c-3.6,0.4-7.2,0.6-10.8,0.5c-5.3,0-8.7-0.2-10.2-0.5c-0.9-0.2-1.6-0.9-1.7-1.8v-2.9c0-3.9,0-9.8,0.1-17.7s0.1-13.7,0.1-17.6
	c0-18.6,0-27.1,0.1-25.4c0-8.5-0.6-16.9-1.7-25.3c-0.1-0.4-0.1-0.8-0.1-1.1c0-1,0.6-1.5,1.7-1.5h23.7c1.1,0,1.6,0.5,1.5,1.4
	l-0.1,1.2C654.8,796.8,654.2,813.7,654.2,828.4z"/>
<path d="M728.9,835.7c0,10.1-3.1,18.3-9.3,24.6c-6.2,6.3-14.3,9.4-24.3,9.4c-9.7,0-17.7-3.1-24-9.3s-9.4-14.2-9.5-23.9
	c0-10.3,3-18.6,9-25s14.1-9.6,24.4-9.6c10,0,18.1,3.1,24.3,9.4S728.9,825.7,728.9,835.7z M707.1,835.7c0-3.4-1.1-6.7-3.3-9.3
	c-2-2.6-5.1-4.1-8.4-4c-3.4-0.1-6.6,1.5-8.6,4.1c-4.2,5.4-4.2,13,0,18.4c3.8,4.7,10.8,5.5,15.5,1.7c0.6-0.5,1.2-1.1,1.7-1.7
	C706.1,842.3,707.2,839.1,707.1,835.7L707.1,835.7z"/>
<path d="M831.4,821.9c0,6.9-0.6,11.7-1.7,14.4c-1.2,2.8-4,8.1-8.6,15.8c-4.7,7.9-7.9,12.8-9.7,14.7c-1.2,1.3-4.1,1.9-8.8,1.9
	c-2.4,0.1-4.9,0-7.3-0.4c-0.9-0.2-1.7-0.7-2.3-1.3c-2.5-2.5-6.4-8.6-11.7-18.3c-5.6,10-9.4,16-11.4,18.3c-1.1,1.2-4,1.7-8.7,1.7
	c-2.2,0.1-4.4,0-6.5-0.4c-2.2-0.6-5.9-5.4-11.2-14.4c-3.4-5.7-6.5-11.6-9.2-17.7c-1.2-2.8-1.7-7.6-1.7-14.4c0-8.2,0.2-13.2,0.7-15
	c0.2-1.1,1.2-1.8,2.3-1.7c2,0,5.1,0.1,9.2,0.2s7.1,0.2,9.2,0.2c1,0,1.5,0.7,1.5,2.2c0,1.3,0,3.2-0.1,5.9s-0.1,4.6-0.1,5.9
	c0,5.3,0.1,9.3,0.4,11.9c0.1,1,1.3,3.5,3.5,7.5s3.7,6,4.2,6c0.8,0,2.2-2,4.4-5.9c1.3-2.4,2.4-4.9,3.4-7.4c0.5-1.6,0.8-5.6,0.8-12
	c0-1.3-0.1-3.3-0.4-6c-0.2-2.6-0.4-4.6-0.4-5.9c0-1.4,0.5-2.1,1.5-2.1c1.2,0,3.7,0,7.4-0.1l2.7-0.1h-0.2c-0.1,0-0.1,0-0.1,0h2.2
	c1.7,0,4.1,0,7.4,0.1c1,0.1,1.5,0.8,1.5,2.1c0,1.7-0.1,4.2-0.3,7.7c-0.2,3.4-0.3,6-0.3,7.7c0,4.5,0.2,7.4,0.5,8.6
	c0.9,2.5,2,4.9,3.2,7.2c2,4,3.4,6,4.2,6s2.3-2,4.5-6c2.1-3.9,3.2-6.4,3.3-7.6c0.2-1.7,0.3-9.5,0.3-23.5c0-1.5,0.4-2.3,1.3-2.3
	c2,0,5.1-0.1,9.2-0.2s7.2-0.2,9.2-0.2c1.1-0.1,2.1,0.7,2.3,1.9C831.2,808.7,831.4,813.7,831.4,821.9z"/>
<path d="M864.2,853.8c0.1,4.2-1.6,8.3-4.5,11.2c-5.9,6.1-15.7,6.2-21.8,0.3c-0.1-0.1-0.2-0.2-0.3-0.3c-6-6.2-6-16.1,0-22.3
	c6-6.1,15.7-6.2,21.8-0.3c0.1,0.1,0.2,0.2,0.3,0.3C862.6,845.6,864.3,849.7,864.2,853.8z"/>
<path d="M936.2,835.7c0,10.1-3.1,18.3-9.3,24.6c-6.2,6.3-14.3,9.4-24.3,9.4c-9.7,0-17.7-3.1-24-9.3s-9.4-14.2-9.4-23.9
	c0-10.3,3-18.6,9-25c6-6.4,14.1-9.6,24.4-9.6c10,0,18.1,3.1,24.3,9.4C933.1,817.6,936.2,825.7,936.2,835.7z M914.4,835.7
	c0-3.4-1.1-6.7-3.2-9.3c-2-2.6-5.1-4.1-8.4-4c-3.4-0.1-6.6,1.5-8.6,4.1c-4.3,5.4-4.3,13,0,18.4c3.8,4.7,10.8,5.5,15.5,1.7
	c0.6-0.5,1.2-1.1,1.7-1.7C913.3,842.3,914.5,839.1,914.4,835.7L914.4,835.7z"/>
<path d="M980.8,814.6c-0.1,0.7-0.5,1.3-1,1.8c-1.2-0.3-2.5-0.5-3.7-0.5c-2.3-0.1-4.6,0.5-6.6,1.7c-2,1.1-3.2,3.3-3.2,5.6
	c0,1.5,1.1,3.5,3.4,5.9c2.3,2.3,4.4,4.7,6.3,7.2c2.2,3.2,3.4,7,3.4,10.8c0,2.4-0.5,4.9-1.3,7.2c-0.7,2.3-2.1,4.4-3.8,6.1
	c-3.5,2.9-7.3,5.4-11.5,7.2c-4.1,1.9-8.6,2.9-13.1,3.1c-0.9,0-2.9-2.4-6-7.2c-3.1-4.8-4.7-7.7-4.6-8.8c0-0.4,0.2-0.6,0.7-0.7
	l9.4-1.7c3.9-1.2,5.8-3.3,5.8-6.1c0-1.9-1.1-4.2-3.4-6.8c-4-4.5-6.1-6.8-6.3-7.1c-2.2-2.9-3.4-6.5-3.4-10.1
	c0-6.7,3.4-12.3,10.1-16.9c5.6-4,12.4-6.2,19.3-6.2c0.7,0,2.5,2.4,5.2,7.1S980.8,813.8,980.8,814.6z"/>
<polygon class="st1" points="558.8,130.7 273.3,197.9 558.8,265.2 844.3,197.9 "/>
<path class="st1" d="M273.3,634.4l256.3,67.3V323l-256.3-67.3L273.3,634.4z M401.5,378.4c37.7,0,68.2,44.9,68.2,100.2
	s-30.5,100.2-68.2,100.2s-68.2-44.9-68.2-100.2S363.8,378.4,401.5,378.4z"/>
<path class="st1" d="M588,323v378.7l256.3-67.3V255.7L588,323z M716.2,579c-37.7,0-68.2-44.9-68.2-100.2s30.5-100.2,68.2-100.2
	s68.2,44.9,68.2,100.2S753.8,578.9,716.2,579L716.2,579z"/>
</svg>
